<?xml version="1.0" encoding="UTF-8" standalone="no"?>
<!DOCTYPE svg PUBLIC "-//W3C//DTD SVG 1.1//EN" "http://www.w3.org/Graphics/SVG/1.1/DTD/svg11.dtd">
<svg width="100%" height="100%" viewBox="0 0 1080 1080" version="1.1" xmlns="http://www.w3.org/2000/svg" xmlns:xlink="http://www.w3.org/1999/xlink" xml:space="preserve" xmlns:serif="http://www.serif.com/" style="fill-rule:evenodd;clip-rule:evenodd;stroke-linecap:round;stroke-linejoin:round;stroke-miterlimit:0.406977;">
    <g transform="matrix(2.01207,0,0,1.90518,-533.049,-445.062)">
        <path id="lighton" d="M801.685,375.325C801.685,297.108 741.557,233.606 667.495,233.606L399.115,233.606C325.054,233.606 264.925,297.108 264.925,375.325L264.925,658.762C264.925,736.979 325.054,800.481 399.115,800.481L667.495,800.481C741.557,800.481 801.685,736.979 801.685,658.762L801.685,375.325Z" style="fill:none;"/>
        <clipPath id="_clip1">
            <path id="lighton1" serif:id="lighton" d="M801.685,375.325C801.685,297.108 741.557,233.606 667.495,233.606L399.115,233.606C325.054,233.606 264.925,297.108 264.925,375.325L264.925,658.762C264.925,736.979 325.054,800.481 399.115,800.481L667.495,800.481C741.557,800.481 801.685,736.979 801.685,658.762L801.685,375.325Z"/>
        </clipPath>
        <g clip-path="url(#_clip1)">
            <path d="M801.685,375.325C801.685,297.108 741.557,233.606 667.495,233.606L399.115,233.606C325.054,233.606 264.925,297.108 264.925,375.325L264.925,658.762C264.925,736.979 325.054,800.481 399.115,800.481L667.495,800.481C741.557,800.481 801.685,736.979 801.685,658.762L801.685,375.325Z" style="fill:none;"/>
            <g transform="matrix(0.798475,0,0,0.827333,77.2228,5.93792)">
                <path d="M639.187,718.731C622.71,822.683 538.608,817.93 509.686,720.748M509.686,720.748C452.319,684.723 401.514,618.546 401.514,549.717C401.514,454.488 477.397,377.175 570.862,377.175C664.328,377.175 740.21,454.488 740.21,549.717C740.21,615.594 692.418,681.168 639.187,718.731" style="fill:rgb(138,241,229);stroke:black;stroke-width:6.92px;"/>
            </g>
            <g transform="matrix(1.0986,0,0,0.786834,-56.8014,74.1988)">
                <path d="M564.845,740.004C564.845,734.851 562.008,730.666 558.513,730.666L520.496,730.666C517.001,730.666 514.163,734.851 514.163,740.004L514.163,758.68C514.163,763.834 517.001,768.018 520.496,768.018L558.513,768.018C562.008,768.018 564.845,763.834 564.845,758.68L564.845,740.004Z" style="fill:rgb(141,141,141);stroke:black;stroke-width:5.83px;"/>
            </g>
            <g transform="matrix(0.901792,0,0,0.313972,64.5635,426.22)">
                <path d="M584.405,689.851C584.405,678.781 581.442,669.793 577.792,669.793L467.533,669.793C463.883,669.793 460.92,678.781 460.92,689.851L460.92,729.968C460.92,741.039 463.883,750.026 467.533,750.026L577.792,750.026C581.442,750.026 584.405,741.039 584.405,729.968L584.405,689.851Z" style="fill:rgb(141,141,141);stroke:black;stroke-width:8.15px;"/>
            </g>
            <g transform="matrix(0.901792,0,0,0.313972,64.5635,403.128)">
                <path d="M584.405,689.851C584.405,678.781 581.442,669.793 577.792,669.793L467.533,669.793C463.883,669.793 460.92,678.781 460.92,689.851L460.92,729.968C460.92,741.039 463.883,750.026 467.533,750.026L577.792,750.026C581.442,750.026 584.405,741.039 584.405,729.968L584.405,689.851Z" style="fill:rgb(141,141,141);stroke:black;stroke-width:8.15px;"/>
            </g>
        </g>
    </g>
</svg>
